<svg width="127" height="200" viewBox="0 0 127 200" fill="none" xmlns="http://www.w3.org/2000/svg">
<path d="M64.7433 107.048C57.7459 110.661 52.7708 115.717 49.9739 122.746C46.1202 132.431 48.0595 141.729 52.5406 150.562C57.7629 160.854 66.3365 167.839 76.4697 173.005C78.7093 174.088 81.0055 175.049 83.3484 175.885C84.3478 176.277 85.4025 176.509 86.474 176.574C90.7939 176.772 92.5189 174.226 90.6259 170.374C88.7674 166.593 86.5722 162.969 84.8655 159.125C83.5643 156.164 82.5509 153.084 81.8392 149.928C81.0795 146.602 82.1483 143.571 84.6966 140.625C86.1521 142.213 87.6021 143.599 88.8126 145.167C91.3506 148.455 93.2616 149.155 97.1576 147.833C100.944 146.547 104.704 145.187 108.482 143.879C109.026 143.729 109.578 143.611 110.136 143.526C111.168 145.769 112.085 147.958 113.168 150.061C114.604 152.848 116.778 153.807 118.899 152.747C120.887 151.755 121.515 149.615 120.398 146.817C119.606 144.831 118.537 142.953 117.798 141.445C122.515 138.922 126.971 137.097 130.765 134.362C135.2 131.162 133.512 125.97 133.21 120.914C137.22 122.291 140.138 124.34 141.9 127.394C143.536 130.416 144.814 133.619 145.707 136.938C146.623 140.031 146.982 143.287 147.615 146.465C148.212 149.461 148.798 152.593 152.245 153.624C154.631 154.337 159.531 151.538 161.028 148.528C164.438 141.664 166.39 134.417 165.74 126.664C164.548 112.464 158.184 100.913 147.472 91.7015C142.984 87.8423 137.525 86.214 131.556 85.6302C131.403 85.1701 131.198 84.6901 131.082 84.1902C125.067 58.2556 110.832 37.472 90.8636 20.3533C84.0629 14.5236 77.0749 8.88605 68.7794 5.19419C66.707 4.272 64.6783 3.24279 62.5749 2.39845C59.8321 1.29655 58.0692 1.70038 57.0734 4.41278C55.0745 9.63199 53.4233 14.9779 52.1307 20.4152C47.5505 40.9796 49.9491 61.2409 55.7022 81.1992C57.9414 88.9679 60.9614 96.513 63.6339 104.157C63.9507 105.059 64.3182 105.944 64.7433 107.048ZM107.64 135.268C103.494 136.453 100.417 137.455 97.2726 138.137C96.7767 138.16 96.2818 138.072 95.8242 137.88C95.3666 137.687 94.9578 137.395 94.6277 137.024C91.6091 133.368 88.4659 129.764 85.8871 125.803C76.7021 111.695 69.3295 96.6731 64.6106 80.4822C62.0498 71.698 60.0888 62.7403 57.813 53.6858L99.121 38.3627C99.9143 39.2314 100.661 40.1418 101.357 41.0901C105.572 47.3627 109.964 53.5306 113.867 59.9933C118.242 67.2366 121.222 75.1067 123.39 83.3184C126.987 96.9361 126.62 110.944 127.711 124.806C127.819 126.186 126.542 128.346 125.297 129.023C122.055 130.787 118.474 131.929 114.425 133.561C111.861 127.034 109.71 121.036 107.145 115.216C105.61 112.004 103.812 108.924 101.771 106.006C100.723 104.411 99.0015 103.301 97.0362 104.269C95.0443 105.25 95.5822 107.244 96.0185 108.877C96.5613 110.744 97.2301 112.571 98.0203 114.346C99.6124 118.133 101.214 121.914 102.924 125.647C104.356 128.782 105.951 131.841 107.64 135.268ZM61.8259 8.92629C74.5751 14.2449 83.8693 23.6601 93.75 32.2834L93.6255 33.1629L57.9816 44.4722C56.4309 35.4232 57.8652 22.16 61.8259 8.92629ZM73.7652 158.708C63.8602 152.228 57.7964 143.325 57.2621 131.397C56.9089 123.438 61.6674 118.12 67.7959 113.73C72.0234 121.019 76.0665 127.992 80.1089 134.963C72.0379 141.254 71.4203 149.487 73.7652 158.708ZM132.777 92.0108C149.184 95.8644 161.803 125.445 154.51 139.133C152.346 126.625 146.772 117.318 133.768 114.441L132.777 92.0108Z" fill="black" fill-opacity="0.6"/>
<path d="M132.06 181.755C131.946 180.742 132.079 179.042 131.536 177.596C129.487 172.144 127.252 166.762 125.012 161.386C124.354 159.807 123.228 158.517 121.277 159.101C119.219 159.718 119.27 161.496 119.664 163.114C121.016 168.665 122.375 174.219 123.962 179.705C124.475 181.237 125.363 182.617 126.544 183.719C128.281 185.398 130.971 184.585 132.06 181.755Z" fill="black" fill-opacity="0.6"/>
<path d="M104.238 152.319C102.003 151.462 99.5686 152.789 99.9115 154.741C100.804 159.667 102.012 164.53 103.527 169.301C104.064 171.023 106.057 171.637 107.921 170.976C108.759 170.708 109.47 170.142 109.917 169.385C110.365 168.628 110.52 167.732 110.351 166.869C110.099 165.176 109.653 163.518 109.02 161.928C108.109 159.512 107.072 157.137 105.959 154.808C105.464 153.927 104.888 153.093 104.238 152.319Z" fill="black" fill-opacity="0.6"/>
<path d="M130.987 143.648C131.022 144.756 131.149 145.859 131.366 146.946C132.709 151.576 134.109 156.189 135.566 160.785C135.864 161.59 136.288 162.342 136.82 163.015C137.888 164.49 139.345 165.093 141.042 164.268C142.795 163.415 143.151 161.809 142.435 160.153C140.092 154.729 137.686 149.332 135.165 143.99C134.836 143.291 133.743 142.747 132.911 142.569C132.411 142.462 131.73 143.203 130.987 143.648Z" fill="black" fill-opacity="0.6"/>
<path d="M94.2614 53.8046C90.3894 52.136 86.727 52.4834 82.6728 53.7431C78.4703 55.0487 74.9861 56.8554 72.2245 60.255C65.8427 68.1206 68.3694 76.9075 76.408 81.6574C82.9232 85.5069 89.9759 85.0919 96.4933 81.4453C102.077 78.3201 104.417 72.959 104.033 66.7154C103.647 60.4164 99.9781 56.2412 94.2614 53.8046ZM96.5199 71.5845C94.8038 72.8954 93.1734 74.7978 91.1254 75.5247C89.0041 76.2774 86.4733 76.0365 84.1296 75.9668C81.0497 75.8756 79.1923 73.8486 78.1655 71.2172C77.1713 68.6717 78.0547 66.359 79.875 64.385C82.7445 61.2727 86.6502 60.7336 90.4942 60.3806C93.9458 60.0637 96.2639 62.0711 96.7199 65.5347C96.9534 67.2979 96.6227 69.1356 96.5199 71.5845Z" fill="black" fill-opacity="0.6"/>
</svg>
