<svg width="35" height="35" viewBox="0 0 35 35" fill="none" xmlns="http://www.w3.org/2000/svg">
<circle cx="17.3163" cy="17.3163" r="17.3163" fill="#9284EC"/>
<g clip-path="url(#clip0_1813_2022)">
<ellipse cx="18.7285" cy="20.142" rx="3.52923" ry="4.94093" fill="#9284EC"/>
<path d="M24.3564 17.6481C22.8788 13.8083 17.6179 13.6012 18.8884 8.02035C18.9826 7.60626 18.5402 7.28627 18.1826 7.50273C14.7663 9.51675 12.3099 13.5542 14.371 18.8433C14.5404 19.2763 14.0322 19.6809 13.6652 19.3986C11.9617 18.1093 11.7829 16.2552 11.9335 14.9282C11.99 14.4389 11.35 14.2036 11.0771 14.6083C10.4371 15.587 9.78772 17.1681 9.78772 19.5492C10.1453 24.8195 14.5969 26.4383 16.1968 26.6453C18.4838 26.937 20.9589 26.5135 22.7377 24.8854C24.6952 23.069 25.4105 20.1703 24.3564 17.6481ZM15.6227 22.382C16.9779 22.0526 17.6744 21.0738 17.8626 20.208C18.1732 18.8622 16.9591 17.5446 17.7779 15.4176C18.0885 17.1775 20.8554 18.2787 20.8554 20.1986C20.9307 22.5796 18.352 24.6219 15.6227 22.382Z" fill="white"/>
</g>
<defs>
<clipPath id="clip0_1813_2022">
<rect width="22.5871" height="22.5871" fill="white" transform="translate(6.02319 6.02521)"/>
</clipPath>
</defs>
</svg>
