<svg width="162" height="164" viewBox="0 0 162 164" fill="none" xmlns="http://www.w3.org/2000/svg">
<path fill-rule="evenodd" clip-rule="evenodd" d="M91.5202 18.7248L103.666 0L138.1 17.6998L125.959 36.4206C123.826 39.7047 127.018 43.6981 131.2 42.9806L154.469 38.9831L162 73.7391L138.731 77.7325C101.091 84.1941 72.3549 48.2779 91.5202 18.7248Z" fill="#D97757"/>
<path fill-rule="evenodd" clip-rule="evenodd" d="M70.48 145.267L58.3342 163.992L23.8956 146.296L36.0415 127.572C38.174 124.287 34.9821 120.294 30.7953 121.012L7.53071 125.005L0 90.2531L23.2692 86.2597C60.9089 79.798 89.6407 115.714 70.48 145.267Z" fill="#D97757"/>
<path fill-rule="evenodd" clip-rule="evenodd" d="M71.5302 18.7248L59.3889 0L24.9503 17.6998L37.0962 36.4206C39.2241 39.7047 36.0368 43.6981 31.85 42.9806L8.58082 38.9831L1.05933 73.7391L24.3239 77.7325C61.9682 84.1941 90.7047 48.2779 71.5348 18.7248H71.5302Z" fill="#D97757"/>
<path fill-rule="evenodd" clip-rule="evenodd" d="M90.5065 145.267L102.643 163.992L137.082 146.296L124.936 127.572C122.808 124.287 125.995 120.294 130.182 121.012L153.447 125.005L160.977 90.2531L137.708 86.2597C100.068 79.798 71.3366 115.714 90.4973 145.267H90.5065Z" fill="#D97757"/>
</svg>
