<svg width="183" height="47" viewBox="0 0 183 47" fill="none" xmlns="http://www.w3.org/2000/svg">
<path fill-rule="evenodd" clip-rule="evenodd" d="M20.87 10.2631L23.507 6.19775L30.983 10.0406L28.347 14.1051C27.884 14.8181 28.577 15.6851 29.485 15.5293L34.537 14.6614L36.172 22.2073L31.12 23.0743C22.948 24.4772 16.709 16.6794 20.87 10.2631Z" fill="black"/>
<path fill-rule="evenodd" clip-rule="evenodd" d="M16.302 37.7369L13.665 41.8023L6.188 37.9604L8.825 33.895C9.288 33.182 8.595 32.315 7.686 32.4707L2.635 33.3377L1 25.7927L6.052 24.9257C14.224 23.5228 20.462 31.3206 16.302 37.7369Z" fill="black"/>
<path fill-rule="evenodd" clip-rule="evenodd" d="M16.53 10.2631L13.894 6.19775L6.41698 10.0406L9.05398 14.1051C9.51598 14.8181 8.82398 15.6851 7.91498 15.5293L2.86298 14.6614L1.22998 22.2073L6.28098 23.0743C14.454 24.4772 20.693 16.6794 16.531 10.2631H16.53Z" fill="black"/>
<path fill-rule="evenodd" clip-rule="evenodd" d="M20.65 37.7369L23.285 41.8023L30.762 37.9604L28.125 33.895C27.663 33.182 28.355 32.315 29.264 32.4707L34.315 33.3377L35.95 25.7927L30.898 24.9257C22.726 23.5228 16.488 31.3206 20.648 37.7369H20.65Z" fill="black"/>
<path fill-rule="evenodd" clip-rule="evenodd" d="M19.87 9.26313L22.507 5.19775L29.983 9.04059L27.347 13.1051C26.884 13.8181 27.577 14.6851 28.485 14.5293L33.537 13.6614L35.172 21.2073L30.12 22.0743C21.948 23.4772 15.709 15.6794 19.87 9.26313Z" fill="#9284EC"/>
<path fill-rule="evenodd" clip-rule="evenodd" d="M15.302 36.7369L12.665 40.8023L5.188 36.9604L7.825 32.895C8.288 32.182 7.595 31.315 6.686 31.4707L1.635 32.3377L0 24.7927L5.052 23.9257C13.224 22.5228 19.462 30.3206 15.302 36.7369Z" fill="#9284EC"/>
<path fill-rule="evenodd" clip-rule="evenodd" d="M15.53 9.26313L12.894 5.19775L5.41698 9.04059L8.05398 13.1051C8.51598 13.8181 7.82398 14.6851 6.91498 14.5293L1.86298 13.6614L0.22998 21.2073L5.28098 22.0743C13.454 23.4772 19.693 15.6794 15.531 9.26313H15.53Z" fill="#9284EC"/>
<path fill-rule="evenodd" clip-rule="evenodd" d="M19.65 36.7369L22.285 40.8023L29.762 36.9604L27.125 32.895C26.663 32.182 27.355 31.315 28.264 31.4707L33.315 32.3377L34.95 24.7927L29.898 23.9257C21.726 22.5228 15.488 30.3206 19.648 36.7369H19.65Z" fill="#9284EC"/>
<path d="M60.0759 36.7068C57.6703 36.7068 55.6367 36.3224 53.9751 35.5536C52.3383 34.7848 51.0859 33.7308 50.2179 32.3916C49.3499 31.0276 48.9159 29.49 48.9159 27.7788H54.0867C54.0867 28.498 54.2851 29.2048 54.6819 29.8992C55.0787 30.5688 55.7111 31.1144 56.5791 31.536C57.4719 31.9576 58.6375 32.1684 60.0759 32.1684C61.3655 32.1684 62.4443 31.9824 63.3123 31.6104C64.1803 31.2384 64.8251 30.7548 65.2467 30.1596C65.6683 29.5396 65.8791 28.8452 65.8791 28.0764C65.8791 27.1092 65.4699 26.3404 64.6515 25.77C63.8331 25.1748 62.5683 24.8028 60.8571 24.654L58.4763 24.468C55.8723 24.2448 53.7891 23.4388 52.2267 22.05C50.6891 20.6364 49.9203 18.7764 49.9203 16.47C49.9203 14.734 50.3295 13.246 51.1479 12.006C51.9663 10.7412 53.1071 9.774 54.5703 9.1044C56.0583 8.41 57.7943 8.0628 59.7783 8.0628C61.8367 8.0628 63.6099 8.4224 65.0979 9.1416C66.5859 9.8608 67.7391 10.8776 68.5575 12.192C69.3759 13.4816 69.7851 15.0068 69.7851 16.7676H64.6143C64.6143 16.0236 64.4283 15.3416 64.0563 14.7216C63.7091 14.0768 63.1759 13.5684 62.4567 13.1964C61.7623 12.7996 60.8695 12.6012 59.7783 12.6012C58.7367 12.6012 57.8687 12.7748 57.1743 13.122C56.4799 13.4692 55.9591 13.9404 55.6119 14.5356C55.2647 15.1308 55.0911 15.7756 55.0911 16.47C55.0911 17.3132 55.4011 18.0572 56.0211 18.702C56.6411 19.322 57.6207 19.6816 58.9599 19.7808L61.3407 20.004C63.2751 20.1528 64.9739 20.562 66.4371 21.2316C67.9003 21.9012 69.0287 22.8064 69.8223 23.9472C70.6407 25.088 71.0499 26.4644 71.0499 28.0764C71.0499 29.7876 70.6035 31.3004 69.7107 32.6148C68.8179 33.9044 67.5407 34.9088 65.8791 35.628C64.2423 36.3472 62.3079 36.7068 60.0759 36.7068ZM85.1795 36.7068C83.3939 36.7068 81.8191 36.4216 80.4551 35.8512C79.0911 35.2808 77.9379 34.512 76.9955 33.5448C76.0531 32.5528 75.3339 31.4368 74.8379 30.1968C74.3667 28.9568 74.1311 27.6672 74.1311 26.328V25.5468C74.1311 24.158 74.3791 22.8436 74.8751 21.6036C75.3959 20.3388 76.1275 19.2228 77.0699 18.2556C78.0371 17.2636 79.2027 16.4948 80.5667 15.9492C81.9307 15.3788 83.4683 15.0936 85.1795 15.0936C86.8907 15.0936 88.4283 15.3788 89.7923 15.9492C91.1563 16.4948 92.3095 17.2636 93.2519 18.2556C94.2191 19.2228 94.9507 20.3388 95.4467 21.6036C95.9427 22.8436 96.1907 24.158 96.1907 25.5468V26.328C96.1907 27.6672 95.9427 28.9568 95.4467 30.1968C94.9755 31.4368 94.2687 32.5528 93.3263 33.5448C92.3839 34.512 91.2307 35.2808 89.8667 35.8512C88.5027 36.4216 86.9403 36.7068 85.1795 36.7068ZM85.1795 32.28C86.4443 32.28 87.5107 32.0072 88.3787 31.4616C89.2467 30.8912 89.9039 30.1348 90.3503 29.1924C90.7967 28.2252 91.0199 27.134 91.0199 25.9188C91.0199 24.6788 90.7843 23.5876 90.3131 22.6452C89.8667 21.678 89.1971 20.9216 88.3043 20.376C87.4363 19.8056 86.3947 19.5204 85.1795 19.5204C83.9643 19.5204 82.9103 19.8056 82.0175 20.376C81.1495 20.9216 80.4799 21.678 80.0087 22.6452C79.5375 23.5876 79.3019 24.6788 79.3019 25.9188C79.3019 27.134 79.5251 28.2252 79.9715 29.1924C80.4427 30.1348 81.1123 30.8912 81.9803 31.4616C82.8483 32.0072 83.9147 32.28 85.1795 32.28ZM100.718 43.44V15.8004H104.81V24.5052L104.178 24.468C104.277 22.4096 104.699 20.686 105.443 19.2972C106.212 17.9084 107.228 16.8792 108.493 16.2096C109.758 15.5152 111.172 15.168 112.734 15.168C114.172 15.168 115.462 15.4284 116.603 15.9492C117.768 16.47 118.76 17.2016 119.579 18.144C120.422 19.0864 121.067 20.19 121.513 21.4548C121.96 22.6948 122.183 24.034 122.183 25.4724V26.2536C122.183 27.7168 121.96 29.0808 121.513 30.3456C121.092 31.5856 120.459 32.6892 119.616 33.6564C118.798 34.5988 117.806 35.3428 116.64 35.8884C115.474 36.4092 114.172 36.6696 112.734 36.6696C111.221 36.6696 109.832 36.3596 108.568 35.7396C107.328 35.0948 106.323 34.1152 105.554 32.8008C104.786 31.4616 104.352 29.738 104.252 27.63L105.889 30.1224V43.44H100.718ZM111.432 32.3172C112.548 32.3172 113.515 32.0444 114.334 31.4988C115.177 30.9532 115.834 30.1968 116.305 29.2296C116.776 28.2376 117.012 27.1216 117.012 25.8816C117.012 24.592 116.776 23.476 116.305 22.5336C115.834 21.5912 115.177 20.8596 114.334 20.3388C113.515 19.7932 112.548 19.5204 111.432 19.5204C110.415 19.5204 109.473 19.7436 108.605 20.19C107.762 20.6364 107.067 21.2936 106.522 22.1616C106.001 23.0296 105.74 24.0712 105.74 25.2864V26.7744C105.74 27.94 106.013 28.932 106.559 29.7504C107.104 30.5688 107.811 31.2012 108.679 31.6476C109.547 32.094 110.465 32.3172 111.432 32.3172ZM126.729 36V8.844H131.9V24.6912H131.007C131.007 22.6576 131.268 20.934 131.788 19.5204C132.309 18.1068 133.078 17.028 134.095 16.284C135.136 15.54 136.451 15.168 138.038 15.168H138.261C140.568 15.168 142.316 15.9616 143.506 17.5488C144.697 19.136 145.292 21.4424 145.292 24.468V36H140.121V23.9844C140.121 22.6948 139.749 21.678 139.005 20.934C138.286 20.19 137.331 19.818 136.141 19.818C134.876 19.818 133.847 20.2396 133.053 21.0828C132.284 21.9012 131.9 22.98 131.9 24.3192V36H126.729ZM151.818 36V15.8004H156.989V36H151.818ZM148.991 19.6692V15.8004H156.989V19.6692H148.991ZM153.716 13.3824C152.699 13.3824 151.942 13.122 151.446 12.6012C150.975 12.0556 150.74 11.386 150.74 10.5924C150.74 9.7492 150.975 9.0672 151.446 8.5464C151.942 8.0256 152.699 7.7652 153.716 7.7652C154.732 7.7652 155.476 8.0256 155.948 8.5464C156.419 9.0672 156.654 9.7492 156.654 10.5924C156.654 11.386 156.419 12.0556 155.948 12.6012C155.476 13.122 154.732 13.3824 153.716 13.3824ZM175.187 36V30.0108H174.332V23.352C174.332 22.1864 174.046 21.3184 173.476 20.748C172.906 20.1776 172.025 19.8924 170.835 19.8924C170.215 19.8924 169.471 19.9048 168.603 19.9296C167.735 19.9544 166.854 19.9916 165.962 20.0412C165.094 20.066 164.312 20.1032 163.618 20.1528V15.7632C164.188 15.7136 164.833 15.664 165.552 15.6144C166.272 15.5648 167.003 15.54 167.747 15.54C168.516 15.5152 169.235 15.5028 169.905 15.5028C171.988 15.5028 173.712 15.7756 175.076 16.3212C176.464 16.8668 177.506 17.7224 178.2 18.888C178.92 20.0536 179.279 21.5788 179.279 23.4636V36H175.187ZM168.677 36.5208C167.214 36.5208 165.924 36.2604 164.808 35.7396C163.717 35.2188 162.862 34.4748 162.242 33.5076C161.646 32.5404 161.349 31.3748 161.349 30.0108C161.349 28.5228 161.708 27.3076 162.428 26.3652C163.172 25.4228 164.201 24.716 165.515 24.2448C166.854 23.7736 168.417 23.538 170.202 23.538H174.89V26.6256H170.128C168.938 26.6256 168.02 26.9232 167.375 27.5184C166.755 28.0888 166.445 28.8328 166.445 29.7504C166.445 30.668 166.755 31.412 167.375 31.9824C168.02 32.5528 168.938 32.838 170.128 32.838C170.847 32.838 171.504 32.714 172.1 32.466C172.72 32.1932 173.228 31.7468 173.625 31.1268C174.046 30.482 174.282 29.614 174.332 28.5228L175.596 29.9736C175.472 31.3872 175.125 32.5776 174.555 33.5448C174.009 34.512 173.24 35.256 172.248 35.7768C171.281 36.2728 170.091 36.5208 168.677 36.5208Z" fill="#1C1B1F"/>
</svg>
