<svg width="92" height="112" viewBox="0 0 92 112" fill="none" xmlns="http://www.w3.org/2000/svg">
<path d="M45.0981 87.8158C35.3009 94.9707 25.7203 101.957 16.1582 108.968C15.4561 109.483 14.9205 110.22 14.2437 110.777C12.6776 112.063 11.1994 111.547 10.8438 109.542C10.7071 108.743 10.7452 107.923 10.9558 107.141C11.9532 103.554 12.9054 99.945 14.1183 96.4289C16.4161 89.7704 18.8799 83.1699 21.2774 76.5465C21.5271 75.8563 21.8001 75.1751 22.0144 74.6139C15.2923 68.4632 8.9284 62.1853 2.71753 55.7522C1.88222 54.871 1.17526 53.8759 0.617483 52.7965C-0.0927247 51.4407 0.401023 50.531 1.89547 50.3328C3.37149 50.1297 4.85964 50.0283 6.34949 50.0294C12.0381 50.0628 17.7259 50.1893 23.4145 50.2211C25.6435 50.2337 27.8734 50.0886 30.2212 50.0115C31.3044 47.3014 32.3665 44.675 33.4058 42.0396C36.1403 35.1054 38.87 28.1688 41.5947 21.23C41.689 20.9757 41.7993 20.7276 41.9245 20.4872C42.7133 19.0436 44.1918 18.9082 45.1787 20.2494C45.5931 20.8683 45.9304 21.5359 46.1825 22.2371C48.3254 27.5128 50.3661 32.8317 52.6094 38.0634C53.9151 41.1075 55.5381 44.0158 57.0541 47.0599C57.7025 47.0599 58.2337 47.0705 58.767 47.0599C65.4005 46.9077 72.0335 46.716 78.6678 46.6137C81.8434 46.5647 85.0219 46.7051 88.1991 46.7144C89.2367 46.7177 90.0991 46.9779 90.5583 47.9573C90.7829 48.424 90.8455 48.9525 90.7361 49.459C90.6267 49.9654 90.3521 50.4207 89.9551 50.7526C87.8664 52.7843 85.7817 54.8246 83.6031 56.7568C77.8205 61.8855 71.988 66.9573 66.1798 72.0576C65.6299 72.5405 65.1153 73.0639 64.6028 73.5509C64.6601 73.8654 64.7419 74.175 64.8469 74.4768C69.268 84.0004 72.0091 94.0472 74.0991 104.297C74.4566 105.743 74.734 107.208 74.9301 108.684C75.1436 111.045 74.3509 111.376 72.0872 111.741C68.919 112.254 66.9929 110.581 64.9799 108.734C59.7326 103.921 54.4825 99.108 49.8975 93.6275C48.3339 91.7589 46.7951 89.872 45.0981 87.8158ZM17.9264 102.237L18.216 102.505C18.5972 102.236 18.9889 101.981 19.3579 101.694C27.1677 95.6205 34.9786 89.5465 42.7905 83.4725C44.7308 81.9682 45.8095 81.9854 47.6485 83.5892C48.8814 84.6522 50.0439 85.7943 51.128 87.009C56.1665 92.7224 61.8417 97.775 67.431 102.917C67.6576 103.126 67.9228 103.292 68.369 103.627C68.3015 103.121 68.2938 102.86 68.2299 102.614C65.9386 93.7601 63.6152 84.914 60.32 76.3662C59.4438 74.093 59.6765 72.3211 61.6334 70.5741C68.1071 64.795 74.4464 58.8632 80.8326 52.9891C81.3578 52.5066 81.8788 52.0203 82.7062 51.2539C81.5579 51.2539 80.8851 51.2461 80.2127 51.2539C72.8979 51.3538 65.5794 51.3518 58.2699 51.6063C55.1212 51.716 53.1447 50.3826 51.7833 47.7451C51.7519 47.6847 51.7235 47.6228 51.697 47.5608C50.3954 44.5081 49.0124 41.4876 47.8189 38.3933C46.5755 35.1709 45.522 31.8724 44.3684 28.6129C44.1491 27.9933 43.8514 27.4018 43.4414 26.4535C42.5831 28.5929 41.7838 30.3603 41.1574 32.1877C39.1793 37.9602 37.2184 43.7396 35.3445 49.5468C34.136 53.2917 31.396 54.8801 27.8116 54.6325C22.4765 54.2654 17.13 54.052 11.7872 53.8081C10.3228 53.7412 8.85523 53.7979 7.13137 53.7979C8.9618 55.4548 10.6701 56.9734 12.3448 58.5259C16.8192 62.6691 21.3009 66.806 25.7273 70.9999C26.4371 71.7252 27.0193 72.5654 27.4495 73.4852C28.0528 74.6808 27.8493 75.643 26.7173 76.2915C25.8891 76.7663 25.6394 77.4337 25.3864 78.1993C24.0254 82.319 22.6116 86.4192 21.3238 90.5585C20.1222 94.4319 19.0536 98.344 17.926 102.237H17.9264Z" fill="black"/>
<g clip-path="url(#clip0_1928_861)">
<path d="M72.4271 28.1187C68.4239 31.0422 64.5093 33.8968 60.6021 36.7615C60.3153 36.972 60.0964 37.2732 59.8199 37.5005C59.18 38.026 58.576 37.8152 58.4307 36.9958C58.3748 36.6695 58.3904 36.3347 58.4764 36.0148C58.884 34.5492 59.273 33.0747 59.7687 31.638C60.7075 28.9173 61.7143 26.2203 62.6939 23.514C62.7959 23.232 62.9074 22.9537 62.995 22.7243C60.2483 20.2112 57.648 17.646 55.1103 15.0174C54.769 14.6574 54.4801 14.2508 54.2522 13.8097C53.962 13.2557 54.1637 12.884 54.7744 12.803C55.3775 12.72 55.9855 12.6786 56.5943 12.679C58.9187 12.6927 61.2427 12.7444 63.5671 12.7574C64.4779 12.7625 65.389 12.7032 66.3483 12.6717C66.7909 11.5644 67.2249 10.4912 67.6496 9.41439C68.7669 6.58106 69.8822 3.74678 70.9955 0.911552C71.0341 0.807669 71.0791 0.706297 71.1303 0.608044C71.4526 0.0182111 72.0568 -0.0371236 72.46 0.510877C72.6293 0.763767 72.7671 1.03653 72.8702 1.32305C73.7457 3.47873 74.5796 5.65206 75.4962 7.78973C76.0297 9.03356 76.6929 10.2219 77.3123 11.4657C77.5772 11.4657 77.7943 11.47 78.0122 11.4657C80.7226 11.4035 83.4329 11.3252 86.1437 11.2834C87.4413 11.2634 88.74 11.3207 90.0382 11.3246C90.4622 11.3259 90.8146 11.4322 91.0022 11.8324C91.0939 12.0231 91.1195 12.239 91.0748 12.446C91.0301 12.6529 90.9179 12.8389 90.7557 12.9745C89.9023 13.8047 89.0505 14.6384 88.1603 15.4279C85.7975 17.5235 83.4143 19.5958 81.0411 21.6798C80.8164 21.8772 80.6061 22.091 80.3967 22.29C80.4202 22.4185 80.4536 22.545 80.4964 22.6683C82.3029 26.5597 83.423 30.6648 84.2769 34.853C84.423 35.4438 84.5364 36.0423 84.6165 36.6455C84.7037 37.6102 84.3798 37.7455 83.4549 37.8945C82.1603 38.1043 81.3733 37.4205 80.5508 36.666C78.4068 34.6993 76.2616 32.7327 74.3881 30.4933C73.7492 29.7298 73.1205 28.9588 72.4271 28.1187ZM61.3247 34.0113L61.443 34.1208C61.5987 34.0107 61.7588 33.9065 61.9096 33.7895C65.1007 31.3077 68.2922 28.8258 71.4842 26.344C72.277 25.7293 72.7178 25.7363 73.4692 26.3917C73.9729 26.826 74.4479 27.2927 74.8909 27.789C76.9496 30.1235 79.2685 32.188 81.5523 34.289C81.6449 34.3743 81.7533 34.4422 81.9356 34.5792C81.908 34.3723 81.9049 34.2658 81.8788 34.1653C80.9425 30.5475 79.9932 26.933 78.6468 23.4403C78.2888 22.5115 78.3838 21.7875 79.1834 21.0737C81.8286 18.7123 84.4189 16.2886 87.0283 13.8884C87.2428 13.6912 87.4557 13.4925 87.7938 13.1794C87.3246 13.1794 87.0497 13.1762 86.775 13.1794C83.7861 13.2202 80.7958 13.2194 77.8091 13.3234C76.5225 13.3682 75.7149 12.8234 75.1586 11.7457C75.1458 11.721 75.1342 11.6957 75.1234 11.6704C74.5915 10.423 74.0264 9.18886 73.5388 7.92453C73.0307 6.60786 72.6002 5.26008 72.1289 3.92824C72.0393 3.67508 71.9176 3.43338 71.7501 3.04588C71.3994 3.92004 71.0728 4.64223 70.8169 5.38889C70.0086 7.74756 69.2074 10.109 68.4417 12.4819C67.9479 14.012 66.8283 14.661 65.3638 14.5599C63.1838 14.4099 60.9992 14.3227 58.8161 14.223C58.2178 14.1957 57.6181 14.2189 56.9138 14.2189C57.6617 14.8959 58.3597 15.5164 59.044 16.1507C60.8722 17.8437 62.7035 19.534 64.5121 21.2477C64.8021 21.544 65.04 21.8873 65.2158 22.2632C65.4623 22.7517 65.3792 23.1448 64.9166 23.4098C64.5782 23.6038 64.4762 23.8765 64.3728 24.1893C63.8167 25.8727 63.239 27.548 62.7128 29.2393C62.2218 30.822 61.7852 32.4205 61.3245 34.0113H61.3247Z" fill="black"/>
</g>
<defs>
<clipPath id="clip0_1928_861">
<rect width="37.2297" height="38" fill="white" transform="translate(54)"/>
</clipPath>
</defs>
</svg>
